<?xml version="1.0" encoding="utf-8"?>
<!-- Generator: Adobe Illustrator 19.0.0, SVG Export Plug-In . SVG Version: 6.00 Build 0)  -->
<svg version="1.1" id="Layer_1" xmlns="http://www.w3.org/2000/svg" xmlns:xlink="http://www.w3.org/1999/xlink" x="0px" y="0px"
	 viewBox="0 0 960 560" style="enable-background:new 0 0 960 560;" xml:space="preserve">
<style type="text/css">
	.st0{fill:#7B7B7C;}
	.st1{fill:#5CAAA8;}
	.st2{fill:#2B3F29;}
	.st3{fill:#44B28D;}
	.st4{fill:#F4B23D;}
	.st5{fill:none;stroke:#F9F9F9;stroke-miterlimit:10;}
	.st6{fill:#FFFFFF;stroke:#FAFCFC;stroke-miterlimit:10;}
	.st7{fill:none;stroke:#FAFCFC;stroke-miterlimit:10;}
	.st8{fill:#E1E5E5;}
	.st9{fill:#F9F908;}
	.st10{fill:#F4EAA6;}
	.st11{fill:#D3CAA3;}
	.st12{fill:#41465B;}
	.st13{fill:#1C1816;}
	.st14{fill:#D9D9DB;}
	.st15{fill:#0AE5A6;}
	.st16{fill:#2B3249;}
	.st17{fill:#50F9C0;}
	.st18{fill:#696B6B;}
	.st19{fill:#969696;}
	.st20{fill:#CCCBA8;}
	.st21{fill:#C3DBED;}
	.st22{fill:#494947;}
	.st23{fill:#93BEE5;}
	.st24{fill:#86B1B2;}
	.st25{fill:#FAF884;}
	.st26{opacity:0.42;fill:#BCBCBC;}
	.st27{opacity:0.42;fill:#FFFFFF;stroke:#614A31;stroke-miterlimit:10;}
	.st28{opacity:0.42;fill:#020000;}
	.st29{opacity:0.42;fill:#614A31;}
	.st30{opacity:0.38;}
	.st31{fill:#717772;stroke:#353535;stroke-miterlimit:10;}
	.st32{stroke:#6E706E;stroke-miterlimit:10;}
	.st33{fill:#F9EF3A;}
	.st34{opacity:0.81;}
	.st35{fill:none;stroke:#BFBFBF;stroke-miterlimit:10;}
	.st36{fill:#332D2A;stroke:#6E706E;stroke-miterlimit:10;}
	.st37{fill:#FFFFFF;stroke:#614A31;stroke-miterlimit:10;}
	.st38{fill:#614A31;}
	.st39{fill:#F4B276;}
	.st40{fill:#161616;}
	.st41{fill:#FF6961;}
	.st42{fill:#020316;}
	.st43{fill:#3F4142;}
	.st44{fill:#77DD77;}
	.st45{fill:#FFFFFF;}
	.st46{fill:#0CBBC9;}
	.st47{fill:#7DDDE5;}
	.st48{fill:#4093CC;}
	.st49{fill:#127784;}
	.st50{fill:#CCDDE7;}
	.st51{fill:#A02B10;}
	.st52{fill:#F44111;}
	.st53{fill:#0F0F0F;}
</style>
<path id="XMLID_63_" class="st0" d="M312.8,470.2c0,0,0.9-5.8,4-5.7c3.1,0.1,7.2,4.1,7.2,4.1s5.8,3.8,3.4,6.5s-8.4,3.8-12,2.2
	C311.9,475.8,312.8,470.2,312.8,470.2z"/>
<g id="XMLID_1_">
	<path id="XMLID_18_" class="st1" d="M434.6,89c0,0,15.2-32.5,25.3-46.2"/>
	<g id="XMLID_2_">
		<polyline id="XMLID_93_" class="st2" points="599.5,553.1 794,335.5 388.6,182.8 165,315.7 599.5,553.1 		"/>
		<polyline id="XMLID_92_" class="st3" points="599,546.7 793.4,329.1 388,176.3 164.4,309.2 599,546.7 		"/>
		<polyline id="XMLID_91_" class="st4" points="586,511.5 199,306.5 391,191.2 756,332.4 586,511.5 		"/>
		<polyline id="XMLID_90_" class="st5" points="585.9,502.9 209.3,304.9 390.8,196.2 746.9,333.2 585.9,502.9 		"/>
		<line id="XMLID_88_" class="st6" x1="306" y1="245.5" x2="674.3" y2="411.1"/>
		<line id="XMLID_85_" class="st7" x1="416.7" y1="415.2" x2="592.4" y2="271.4"/>
		<line id="XMLID_83_" class="st7" x1="331.7" y1="369.9" x2="509.9" y2="241"/>
		<polygon id="XMLID_81_" class="st8" points="366.6,332.7 544,204 547.2,239.9 371.9,372.2 		"/>
		<polygon id="XMLID_80_" class="st9" points="366.5,330.9 369.5,330.6 374.7,389.8 371.9,392.7 		"/>
		<polygon id="XMLID_79_" class="st9" points="543.1,205.7 547.9,260.3 551.8,257.2 547,203.2 		"/>
		<path id="XMLID_24_" class="st10" d="M299.4,257.9l3.6-19.2c0,0,0.3-8.5,6.6-13c6.3-4.5,17.9-8.9,17.9-8.9s8.5-0.4,12.5,2.7
			c4,3.1,3.6,17.9,3.6,17.9s-10.3,5.4-20.1,20.6c-9.8,15.2-19.7,16.1-19.7,16.1L299.4,257.9z"/>
		<path id="XMLID_25_" class="st10" d="M347.4,239.3l15.8-11.3l8.5-9l19.7-11.2c0,0,4.9-11.4,8.5-14.1c3.6-2.7,10.7-7.8,10.7-7.8
			h10.3c0,0,9.8,0.9,3.1,10.7s-25,16-25,16l-17,20.7l-24.6,16.2l-13.8,7.1L347.4,239.3z"/>
		<path id="XMLID_27_" class="st10" d="M263.6,256.5c0,0,0,6.3,2.7,9.4l3.6,3.6c0,0-4.3,5.7,0,13c4.3,7.2,8.8,8.5,8.8,8.5l9.9-14.7
			l-9.9-6.3l-2.6-3.6c0,0,2.5-6.3,2.6-9.8c0.1-3.6-2.6-13.9-2.6-13.9s-4.9-4-5.4,2.7s-0.9,1.8-0.9,1.8L263.6,256.5z"/>
		<path id="XMLID_26_" class="st10" d="M252.4,376.8c0,0-8,27.3-6.7,31.3s-0.2,8-0.2,8s3.7,5.8,9.5,12.1c5.8,6.3,17,20.1,17,20.1
			l9.4,4.9l2.7-12.5c0,0-1.6,5.8-5.5-13c-3.9-18.8-9.3-12.7-9.3-12.7s4-14.5,11.2-19.4c2.9-2,5.4-6.6,7.5-11.4c3.1-7.2,5-15,5-15
			l-23.8-13.9L252.4,376.8z"/>
		<path id="XMLID_29_" class="st10" d="M321.2,388.3c0,0-2.8,20.9-4.3,25.5c0,0,12.7,10,4.3,21.4c0,0-6.1,20.1-13.9,19.6
			s-11.4-31.9-11.4-31.9s-6.5-4.6-7-10.5s-5-19.6-5-19.6l20.1-22.8L321.2,388.3z"/>
		<path id="XMLID_73_" class="st11" d="M366.4,233.8c0,0-2.7,1.2,4.5-3.4"/>
		<path id="XMLID_74_" class="st11" d="M401,196.2v8c0,0,5-1.3,5.9,0c0.9,1.3,7.7-4,7.7-4l-6.8-6.7L401,196.2z"/>
		<line id="XMLID_75_" class="st11" x1="408" y1="195.8" x2="414.7" y2="189.5"/>
		<line id="XMLID_76_" class="st11" x1="411.3" y1="199" x2="418.2" y2="192.6"/>
		<line id="XMLID_77_" class="st11" x1="414.7" y1="200.2" x2="420.5" y2="195.8"/>
		<line id="XMLID_78_" class="st11" x1="401.3" y1="196.2" x2="406.1" y2="189.5"/>
		<path id="XMLID_72_" class="st11" d="M273,250.9c0,0-0.9-0.2,0,5.6l-3.7,2.7c0,0-4.8-1.3-3.9,2.7"/>
		<path id="XMLID_35_" d="M265.4,474.2c0,0-9.4,3.1-5.8,7.2c3.6,4,17.7,0,17.7,0s4.1-8.9,11.3-13c7.2-4,10.8-11.2,10.8-11.2
			s-8-11.6-12-11.4c-4.1,0.2-13.4,10.1-13.4,10.1S272,469.4,265.4,474.2z"/>
		<path id="XMLID_34_" d="M303.8,445.8l-1.8,18.7c0,0,0.8,12.9,7.5,15.1s17.9,0,17.9,0s5.9-9.1-6-16.4c0,0-4.4-5.1-4.3-10
			C317.2,453.2,307.8,452.9,303.8,445.8"/>
		<path id="XMLID_30_" class="st12" d="M250,381.2v-17.9l3-8c0,0,0.6-2.7,2.8-11.2c2.2-8.5,5.8-20.9,5.8-20.9L286,312h25.9l10.7,7.3
			c0,0,6.3,12.3,4.9,24.4c-1.3,12.1-3.5,31.7-3.5,31.7v17.4l-20,11.4l-15.3-11.8c0.1-26,2.6,0.3-9.6,0.3L250,381.2z"/>
		<path id="XMLID_31_" class="st13" d="M315.5,221.2c0,0,8.3-7.6,12.2-7.2c3.9,0.4,10.6-0.5,13.7,0c3.1,0.5,5.8,11.6,5.8,11.6
			s0.5,12.5-3.6,19.7c-4,7.2-12.3,5.4-12.3,5.4s-2-9.4,2.4-14.3c4.5-4.9,4-12.5,4-12.5l-13.8-5.7L315.5,221.2z"/>
		<path id="XMLID_32_" class="st14" d="M265.4,440.1c0,0,6.4-8.8,13.3-8.4l5.5,8.9l5,8.1l-11.9,11.1l-1.2-6.7L265.4,440.1z"/>
		<path id="XMLID_28_" class="st14" d="M300.5,437.2c0,0,11.8,6.2,16.5-0.4l2,14.8c0,0,0-0.1-9,3.1c-9,3.2-9.3-6.6-9.3-6.6
			L300.5,437.2z"/>
		<path id="XMLID_23_" class="st15" d="M261.7,323.4l5.8-15.6c0,0,10-3.1,6.6-18.1c-0.7-3.3,4.5-17.2,4.5-17.2l8.6-7.4
			c0,0,3.3-10.7,9.8-14.8c6.6-4.1,4.1,3.3,4.1,3.3l4.1,9.8c0,0,5.7-7.1,18-14c12.3-7,20.5-15.6,20.5-15.6h13.6c0,0-6.1,9.4,0,16
			c0,0-6.2,1.5-13.6,11.4c-7.4,9.8-6.6,17.3-6.6,17.3s-6.6,10.5-8.2,20.3s-0.8,14.6-0.8,14.6l-5.7,6
			C322.6,319.3,269.7,315.3,261.7,323.4z"/>
		<path id="XMLID_64_" class="st16" d="M271.2,337c0,0,19.9,8.2,21.6,21.9l-14.2-8.2c0,0,13.6,4.4,14.2,13.1
			c0.6,8.7-10.8-2.2-10.8-2.2s7.2-4.4,6.6,4.9s1.9-1,8.7-15.8c6.8-14.8,12.2-18.6,12.2-18.6s-12.8,7.4-16.8,12.6
			C288.8,349.8,271.2,337,271.2,337z"/>
		<path id="XMLID_65_" class="st17" d="M280.6,295.4c0,0,23.4-17.9,38.8-25c15.3-7.2,8.1,0,8.1,0l-28.1,14.7c0,0-15.2,7.2-6.3,5.8
			c8.9-1.3,30.5-18.3,30.9-14.3c0.4,4-12.4,9.8-12.4,9.8s-23.5,18.8-34.3,21.5s-3.5-5.9-3.5-5.9s5.5-1.3,12.2-4.4
			S280.6,295.4,280.6,295.4z"/>
		<path id="XMLID_67_" class="st17" d="M293.1,303.9c0,0,9.8-9.8,22.3-13s15.9-3.1,15.9-3.1s-9.2,4-15.9,6.2
			c-6.7,2.2,2.1,1.3-3.9,5.4s-7.8,5.1-16.7,9c-8.9,3.9-8.9,3.9-8.9,3.9l-9.8-1.8c0,0,1.3,1,8-2.2
			C290.9,305.3,293.1,303.9,293.1,303.9z"/>
		<path id="XMLID_69_" class="st11" d="M319.4,226.6l4-1.1l4-1.1l-3.4,7.8C324,232.1,323.3,220.8,319.4,226.6z"/>
		<path id="XMLID_66_" class="st11" d="M329.2,228.3l2.2,4.2C331.3,232.4,334.8,228,329.2,228.3z"/>
		<path id="XMLID_70_" class="st11" d="M319.4,223l4,2.5C323.4,225.5,325.9,222.4,319.4,223z"/>
		<path id="XMLID_71_" class="st11" d="M310.1,241.5c0,0-2.7-2.4-3.8,6.1c-1.1,8.5,0,5.4,0,5.4"/>
		<path id="XMLID_33_" class="st18" d="M273,245.4l33.5-38c0,0-12.5-21,23.3-38.4c19.7-6.3,17.3,12.1,17.3,12.1
			c-2,14.3-17.3,26.1-17.3,26.1s-8.1,5.7-19.6,3L277,247.6L273,245.4z"/>
		<path id="XMLID_8_" class="st19" d="M308,206c0,0-7.4-6.9,6.1-22.3s21.7-15.6,26.9-13c5.2,2.7,3.6,8,2.7,13.4
			c-0.9,5.4-2,6-10.3,14.9c-8.3,8.8-11.6,8.6-11.6,8.6S314.5,211,308,206z"/>
		<path id="XMLID_47_" class="st20" d="M402.5,135.5c0,0-38.2,12-31.2,45.1S417,208,417,208l16.3-6.4l7-2.7
			C440.2,198.8,475,133.9,402.5,135.5z"/>
		<path id="XMLID_46_" class="st21" d="M560.1,63.7l22.6,16.6l-2.5,17.5l16,16.8l-7.7,17.8l10.7,18.6l-10.9,16.7l5.4,25.7l-18,7.1
			l-3.3,15.5l-27.4,3.8l7.9,4.6l-15.7,6.2l-33.4-8.2l17.5,10.4l-36.7-9.7l-10.9,1.6l-21.3-18.5c0,0-11-4.1-39-15.5
			s-4.1-71.4-4.1-71.4S405,80.6,413,82.2c8,1.5,2.9-4.5,2.9-4.5"/>
		<path id="XMLID_45_" class="st22" d="M413.2,126.9c0,0-23.8,8.3-29.9,28.1c-1.8,5.8-2.1,12.5,0.1,20.3c9.7,34.7,46.6,29.5,64.9,20
			c0,0-42.9,13.9-54.6-19.4C381.8,142.7,413.2,126.9,413.2,126.9z"/>
		<path id="XMLID_44_" class="st23" d="M442.1,70l-11.5,29.1l-8.4,9.2l7.2,2l-0.2,17.4l4,10.2l-5.1,10.3l12.1,16.7l-0.8,10l11.1,6.9
			l5.1,13l15,7.2l13.4,14.1l19.2,9.5c0,0,15.1,13.6-45.2-15.9c-71.7-19.8-54.6-75-54.6-75l4.1-28.1L418,82.3l20.7-32.4"/>
		<polyline id="XMLID_43_" class="st24" points="471.9,56.2 419.3,121.9 422.9,95.6 440,51.9 		"/>
		<path id="XMLID_42_" class="st24" d="M504.9,31c0,0,0.6,27.4-63.8,74.8l-23,23.3l18.1-34.1l22-49"/>
		<path id="XMLID_41_" class="st24" d="M531.5,54.1c-12.4,12.9-46.1,36.3-46.1,36.3l-26.9,16L414.1,148l5.8-14.3l36.3-33.1
			l11.4-30.8"/>
		<polyline id="XMLID_40_" class="st24" points="557.8,69.9 490.6,113.9 475.2,116.6 421.3,150.9 419.4,146 471.8,108 485,81.5 
			527.9,52.2 		"/>
		<path id="XMLID_39_" class="st24" d="M566,77l16.8,3.5l-6.1,25.3c0,0-33.5,24.6-81.7,22.5l-63.7,23.9l61.1-28.8l9.7-21.3L566,77"
			/>
		<path id="XMLID_38_" class="st24" d="M438,160.3l65.9-22.9l20.4-13l55.4-19.4l16.5,9.5l-12,22.2c0,0-25.5,22.8-85.2,12.8
			L438,160.3z"/>
		<path id="XMLID_37_" class="st24" d="M441.4,168.9l59.4-8.6l20.6-12.1l66.3-2.7l11.6,5.5l-15.3,20.8c0,0-22.8,15.9-80.4-4.5
			L441.4,168.9z"/>
		<path id="XMLID_36_" class="st24" d="M444,175.4l56.6,3.1l30.9-12.2l56.5,7.7l5.7,19c0,0-18.8,28.2-95.4-7L444,175.4z"/>
		<path id="XMLID_17_" class="st24" d="M438.1,180.4l54.2,12.1l25.7-2.1l52.3,15.1l2.1,10.4c0,0-28.2,3.3-53-0.1
			c-24.8-3.4-40.7-19.3-40.7-19.3l-42.6-8l-3.2-8.1L438.1,180.4z"/>
		<path id="XMLID_16_" class="st24" d="M446.2,185.7l41.2,16.7l20.7,1.8l39.2,18.7l0.2,8.4c0,0-22.8-1.2-42-7.2
			c-19.2-6-29.4-20.5-29.4-20.5l-32.6-12l-1.4-6.7L446.2,185.7z"/>
		<path id="XMLID_19_" class="st1" d="M463.1,95.2c0,0,41.9-28.3,57.8-50.9"/>
		<path id="XMLID_15_" class="st1" d="M446.2,93.1c0,0,34.2-37.6,42.7-61.8"/>
		<path id="XMLID_14_" class="st1" d="M476.2,106.4c0,0,53.1-28.6,71.7-49.7"/>
		<path id="XMLID_13_" class="st1" d="M498.4,122.5c0,0,31.5-9.4,74.9-37.3"/>
		<path id="XMLID_12_" class="st1" d="M500.4,145.6c0,0,61.7-10.2,86.2-26.6"/>
		<path id="XMLID_11_" class="st1" d="M511,162.2c0,0,47.3-9.3,75.1-8.8"/>
		<path id="XMLID_10_" class="st1" d="M509.9,183.4c0,0,57.8,0,76.7,5.3"/>
		<path id="XMLID_9_" class="st1" d="M503.5,197.7c0,0,39.7,7.2,54.3,12.7"/>
		<path id="XMLID_7_" class="st1" d="M484.4,205.3c0,0,44.3,17.1,51.4,19.7"/>
	</g>
</g>
<g id="XMLID_89_">
	<ellipse id="XMLID_114_" class="st25" cx="1533.6" cy="265.5" rx="198.6" ry="192.8"/>
	<path id="XMLID_113_" class="st26" d="M1448.7,348.5l169.5-165.4l112,110.4c-1,26.2-42,149.1-169.5,162.9L1448.7,348.5z"/>
	<path id="XMLID_112_" class="st27" d="M1653.4,265.6c0,64.4-53.8,116.6-120.2,116.6c-32.9,0-62.8-12.9-84.5-33.7
		c-22-21.1-35.7-50.5-35.7-82.9c0-64.4,53.8-116.6,120.2-116.6c33.2,0,63.2,13.1,85,34.2C1639.9,204.2,1653.4,233.4,1653.4,265.6z"
		/>
	<polygon id="XMLID_111_" class="st28" points="1426.7,265.6 1454.4,308.5 1486,291.5 1486,241 1453.9,224.5 	"/>
	<path id="XMLID_110_" class="st28" d="M1448.7,182.7l12,7.8c0,0,23.5-18.5,39.5-21.5l-1.8-15.1
		C1498.4,153.9,1470.1,161.3,1448.7,182.7z"/>
	<polygon id="XMLID_109_" class="st28" points="1533.6,180 1533.2,214.3 1578.7,240.6 1610.2,221.3 1586.2,180 	"/>
	<path id="XMLID_108_" class="st28" d="M1637.2,245c0,0,5,26,0,42l12.6,6.7c0,0,8.2-28,0-53.2L1637.2,245z"/>
	<polygon id="XMLID_107_" class="st28" points="1579,293.9 1610.1,311.1 1585.7,355 1533.2,355 1533.6,317.8 	"/>
	<path id="XMLID_106_" class="st28" d="M1461,342.6c0,0,25.3,18.4,38.3,20.9V378c0,0-25.5-6-50.9-29.5L1461,342.6z"/>
	<line id="XMLID_105_" class="st29" x1="1454" y1="224.5" x2="1460.7" y2="190.5"/>
	<line id="XMLID_104_" class="st29" x1="1500.2" y1="169" x2="1533.6" y2="180"/>
	<line id="XMLID_103_" class="st29" x1="1586.2" y1="180" x2="1594.1" y2="165.1"/>
	<line id="XMLID_102_" class="st29" x1="1486.2" y1="241" x2="1533.2" y2="214.3"/>
	<line id="XMLID_101_" class="st29" x1="1486.2" y1="291.5" x2="1533.6" y2="317.8"/>
	<line id="XMLID_100_" class="st29" x1="1454.5" y1="308.5" x2="1461" y2="342.6"/>
	<path id="XMLID_99_" class="st29" d="M1413.2,266h13H1413.2z"/>
	<line id="XMLID_98_" class="st29" x1="1578.7" y1="240.6" x2="1579" y2="293.9"/>
	<line id="XMLID_97_" class="st29" x1="1610.2" y1="221.3" x2="1637.2" y2="245"/>
	<line id="XMLID_96_" class="st29" x1="1610.1" y1="311.1" x2="1637.2" y2="287"/>
	<line id="XMLID_95_" class="st29" x1="1585.7" y1="355" x2="1594.1" y2="366.1"/>
	<line id="XMLID_94_" class="st29" x1="1499.2" y1="363.5" x2="1533.2" y2="355"/>
</g>
<g id="XMLID_84_" class="st30">
	<polygon id="XMLID_87_" class="st31" points="1264.5,339.8 1294.3,324.5 1495.4,324.5 1525.5,339.8 1525.5,231.5 1513.3,239 
		1277.7,239.5 1264.5,231.5 	"/>
	<polygon id="XMLID_86_" class="st32" points="1261.5,342.4 1261.5,229.5 1528.5,229.5 1528.5,342.5 1522,342.5 1522.4,232.9 
		1268.2,233.8 1268.5,342.6 	"/>
</g>
<line id="XMLID_82_" class="st32" x1="1440.7" y1="259.4" x2="1425.7" y2="330.8"/>
<line id="XMLID_68_" class="st32" x1="1426.2" y1="259.8" x2="1440.3" y2="330.8"/>
<g id="XMLID_62_">
	<g id="XMLID_140_">
		<polygon id="XMLID_179_" class="st33" points="1247.5,257.8 1245.7,258.8 1243.3,254.6 1245.1,253.6 		"/>
		<polygon id="XMLID_178_" class="st33" points="1242.4,260.7 1239.1,262.9 1236.5,258.9 1239.8,256.7 		"/>
		<polygon id="XMLID_177_" class="st33" points="1235.9,265 1232.8,267.5 1230,263.8 1233.1,261.4 		"/>
		<polygon id="XMLID_176_" class="st33" points="1229.8,269.9 1226.9,272.5 1223.9,269.3 1226.8,266.6 		"/>
		<polygon id="XMLID_175_" class="st33" points="1224.2,275.2 1221.6,278.2 1218.4,275.4 1221,272.3 		"/>
		<polygon id="XMLID_174_" class="st33" points="1219.3,281.1 1217,284.4 1213.6,282 1215.8,278.7 		"/>
		<polygon id="XMLID_173_" class="st33" points="1215.1,287.5 1213.3,291.1 1209.7,289.3 1211.4,285.7 		"/>
		<polygon id="XMLID_172_" class="st33" points="1211.9,294.5 1210.7,298.3 1207,297.2 1208.2,293.3 		"/>
		<polygon id="XMLID_171_" class="st33" points="1209.9,301.9 1209.4,305.8 1205.7,305.4 1206.2,301.4 		"/>
		<polygon id="XMLID_170_" class="st33" points="1209.2,309.5 1209.3,313.5 1205.8,313.6 1205.6,309.7 		"/>
		<polygon id="XMLID_169_" class="st33" points="1209.8,317.2 1210.6,321.1 1207.3,321.8 1206.4,317.9 		"/>
		<polygon id="XMLID_168_" class="st33" points="1211.6,324.7 1212.8,328.5 1209.7,329.5 1208.4,325.8 		"/>
		<polygon id="XMLID_167_" class="st33" points="1214.1,332.2 1215.6,335.9 1212.7,337 1211.2,333.3 		"/>
		<polygon id="XMLID_166_" class="st33" points="1217.1,339.5 1218.7,343.1 1216.1,344.3 1214.4,340.7 		"/>
		<polygon id="XMLID_165_" class="st33" points="1220.5,346.6 1222.3,350.1 1219.9,351.5 1218,348 		"/>
		<polygon id="XMLID_164_" class="st33" points="1224.3,353.5 1226.3,357 1224.1,358.3 1222,355 		"/>
		<polygon id="XMLID_163_" class="st33" points="1228.4,360.3 1230.7,363.6 1228.6,365 1226.3,361.7 		"/>
		<polygon id="XMLID_162_" class="st33" points="1232.9,366.8 1235.3,369.9 1233.5,371.4 1231,368.2 		"/>
		<polygon id="XMLID_161_" class="st33" points="1237.8,373 1240.3,376.1 1238.6,377.5 1236,374.5 		"/>
		<polygon id="XMLID_160_" class="st33" points="1242.9,379.1 1245.5,382.1 1244,383.4 1241.3,380.5 		"/>
		<polygon id="XMLID_159_" class="st33" points="1248.2,385 1251,387.8 1249.6,389.2 1246.8,386.3 		"/>
		<polygon id="XMLID_158_" class="st33" points="1253.8,390.6 1256.6,393.4 1255.4,394.7 1252.5,392 		"/>
		<polygon id="XMLID_157_" class="st33" points="1259.5,396.2 1262.4,398.9 1261.4,400 1258.4,397.4 		"/>
		<polygon id="XMLID_156_" class="st33" points="1265.4,401.5 1268.4,404.1 1267.4,405.2 1264.4,402.7 		"/>
		<polygon id="XMLID_155_" class="st33" points="1271.4,406.7 1274.4,409.3 1273.6,410.3 1270.5,407.8 		"/>
		<polygon id="XMLID_154_" class="st33" points="1277.5,411.9 1280.6,414.4 1279.9,415.3 1276.7,412.8 		"/>
		<polygon id="XMLID_153_" class="st33" points="1283.7,416.9 1286.8,419.3 1286.2,420.1 1283,417.7 		"/>
		<polygon id="XMLID_152_" class="st33" points="1290,421.8 1293.1,424.2 1292.6,424.9 1289.4,422.5 		"/>
		<polygon id="XMLID_151_" class="st33" points="1296.3,426.6 1299.5,429 1299.1,429.6 1295.8,427.2 		"/>
		<polygon id="XMLID_150_" class="st33" points="1302.7,431.4 1305.9,433.8 1305.6,434.2 1302.3,431.9 		"/>
		<polygon id="XMLID_149_" class="st33" points="1309.1,436.1 1312.3,438.5 1312.1,438.8 1308.8,436.5 		"/>
		<polygon id="XMLID_148_" class="st33" points="1315.6,440.8 1318.8,443.1 1318.6,443.3 1315.4,441.1 		"/>
		<polygon id="XMLID_147_" class="st33" points="1322,445.4 1325.3,447.8 1325.2,447.8 1321.9,445.6 		"/>
		<polygon id="XMLID_146_" class="st33" points="1328.7,450.1 1330.3,451.3 1328.7,450.2 		"/>
		<g id="XMLID_144_">
			<polygon id="XMLID_145_" class="st33" points="1233.6,252.8 1245,256.4 1241.4,267.9 1247.8,264.6 1251.4,253.1 1239.9,249.5 			
				"/>
		</g>
	</g>
</g>
<g id="XMLID_58_" class="st34">
	<polygon id="XMLID_60_" class="st35" points="1265.5,340.6 1294.9,325.5 1495.9,325.5 1525.5,340.6 1525.5,232.9 1513.5,240.4 
		1278.4,240.8 1265.5,232.9 	"/>
	<polygon id="XMLID_59_" class="st36" points="1261.5,343.2 1261.5,229.5 1528.5,229.5 1528.5,343.5 1521.7,343.5 1522.1,234.4 
		1268.1,235.2 1268.5,343.4 	"/>
</g>
<g id="XMLID_54_">
	<g id="XMLID_56_">
		<g id="XMLID_57_">
			<path id="XMLID_273_" class="st37" d="M1227.9,319.4c0,10.9-9.1,19.8-20.4,19.8c-5.6,0-10.7-2.2-14.4-5.7
				c-3.7-3.6-6.1-8.6-6.1-14.1c0-10.9,9.1-19.8,20.4-19.8c5.6,0,10.7,2.2,14.4,5.8C1225.7,309,1227.9,313.9,1227.9,319.4z"/>
			<polygon id="XMLID_272_" class="st38" points="1189.4,319.4 1193.9,326.7 1199,323.8 1199,315.2 1193.8,312.4 			"/>
			<path id="XMLID_271_" class="st38" d="M1193.2,305.3l2,1.3c0,0,4-3.1,6.7-3.7l-0.3-2.6C1201.6,300.4,1196.8,301.7,1193.2,305.3z"
				/>
			<polygon id="XMLID_270_" class="st38" points="1207.6,305 1207.5,310.8 1215.3,315.2 1220.6,312 1216.5,305 			"/>
			<polygon id="XMLID_268_" class="st38" points="1215.3,324.2 1220.6,327.4 1216.4,335 1207.5,335 1207.6,328.5 			"/>
			<path id="XMLID_267_" class="st38" d="M1195.2,332.5c0,0,4.3,3.1,6.5,3.6v2.5c0,0-4.3-1-8.7-5L1195.2,332.5z"/>
			<line id="XMLID_266_" class="st38" x1="1194.1" y1="312.4" x2="1195.2" y2="306.7"/>
			<line id="XMLID_265_" class="st38" x1="1201.9" y1="303" x2="1207.6" y2="304.9"/>
			<line id="XMLID_263_" class="st38" x1="1199.5" y1="315.2" x2="1207.5" y2="310.7"/>
			<line id="XMLID_262_" class="st38" x1="1199.5" y1="323.8" x2="1207.6" y2="328.3"/>
			<line id="XMLID_259_" class="st38" x1="1215.3" y1="315.2" x2="1215.3" y2="324.2"/>
			<line id="XMLID_256_" class="st38" x1="1216.4" y1="334.6" x2="1217.9" y2="336.5"/>
			<line id="XMLID_204_" class="st38" x1="1201.7" y1="336.1" x2="1207.5" y2="334.6"/>
		</g>
		<path id="XMLID_193_" class="st39" d="M1396.3,129h58c0,0,8,1-2,13h-2l0.3,55.8l-25.4,18.7l-24.6-17.3L1400,142
			C1400,142,1388.7,136,1396.3,129z"/>
		<polygon id="XMLID_191_" class="st39" points="1486.3,303 1490,303 1490,289 1495,289 1495,309 1489.5,313.9 		"/>
		<polygon id="XMLID_194_" class="st39" points="1353.6,307.9 1360.5,311.7 1362.4,302.3 1357,299.1 1357,289 1353.7,289 		"/>
		<polygon id="XMLID_195_" class="st39" points="1378.5,365.1 1373.3,423 1385.3,423 1395.3,373.4 		"/>
		<polygon id="XMLID_196_" class="st39" points="1454,375.7 1464,419.3 1476.7,420.7 1472,364.8 		"/>
		<path id="XMLID_192_" class="st40" d="M1425,174.7c0,0-22.7-26.7-24.7-38s-8.7-32,0-44c0,0-2-8,16.7-19.3c0,0,8.7-6,5.7-12.3
			s6.3,3-0.7,12c0,0,12-6.3,3-16.3c0,0,9.3,6.7,7,13.3c0,0,3-1.7,2.7-4.7c-0.3-3,2,6,1.7,8.7c0,0,9,3,12,12.3s6,13.7,6,13.7
			s1.7,25-4.3,37S1432,168.7,1425,174.7z"/>
		<path id="XMLID_197_" class="st41" d="M1374,197.4l25-16.9l51.6-0.2l25.4,16.1c0,0,20.7,47.8,19.8,104.9h-4.5
			c0,0-8.7-66.3-25.7-72.7l-1,67.6h-79.3l-2-67.9c0,0-19.3,17.9-24.3,73h-5.7C1353.3,301.5,1353,254.8,1374,197.4z"/>
		<polygon id="XMLID_199_" class="st42" points="1385.3,296 1464.3,296 1473,378 1437.3,378 1424.7,342.2 1413,378 1377.3,378 		"/>
		<path id="XMLID_200_" class="st43" d="M1373.3,418h13l-11.7,49.9c0,0-2,2.8-5.7,0.1L1373.3,418z"/>
		<path id="XMLID_201_" class="st43" d="M1463.3,418h13l6,48.9c0,0-1,6.8-6.3,2.3L1463.3,418z"/>
		<ellipse id="XMLID_203_" class="st44" cx="1449" cy="489.9" rx="118.7" ry="16.1"/>
		<path id="XMLID_198_" class="st40" d="M1359.7,481c0,0,10.7,5,15,0c0,0,4-7,1.7-12.3c-2.3-5.3-8-2-8-2l-8.7,6.3
			C1359.7,473,1349,477.3,1359.7,481z"/>
		<path id="XMLID_202_" class="st40" d="M1475.7,480c0,0,1.7,7.3,15,0c13.3-7.3,0-8,0-8s-6.7-7.4-11.3-6.4
			C1474.7,466.7,1471.7,472.3,1475.7,480z"/>
		<path id="XMLID_269_" class="st38" d="M1225.2,315.9c0,0,0.8,4.4,0,7.1l2.1,1.1c0,0,1.4-4.8,0-9L1225.2,315.9z"/>
		<line id="XMLID_264_" class="st38" x1="1436.5" y1="459.9" x2="1437.9" y2="457.3"/>
		<line id="XMLID_261_" class="st38" x1="1414.1" y1="481.7" x2="1415.2" y2="487.5"/>
		<path id="XMLID_260_" class="st38" d="M1407.1,474h2.2H1407.1z"/>
		<line id="XMLID_258_" class="st38" x1="1221.6" y1="311.9" x2="1226.2" y2="315.9"/>
		<line id="XMLID_257_" class="st38" x1="1219.6" y1="329.2" x2="1224.2" y2="325.1"/>
	</g>
	<polygon id="XMLID_55_" class="st45" points="1411,230 1436,230 1422.2,267.8 1421.8,259 1430.7,234 1411,234 	"/>
</g>
<path id="XMLID_188_" class="st46" d="M624.8,1073.9c-20.2,4,6.7,24.3-39.1,22.9s-95.7,60.7-171.2,22.9c-75.5-37.7-8.1-6.7-8.1-6.7
	s-99.7-18.9-94.4-44.5c5.4-25.6-75.5-68.7-91.7-165.8s0-76.8,0-76.8s5.4-128.1,41.8-145.6c36.4-17.5,13.5,9.4,13.5,9.4
	s43.1-58,89-60.7s9.4,24.3,9.4,24.3s-20.2,22.9,13.5,18.9c33.7-4,44.5-36.4,55.3-12.1s89-17.5,90.3,24.3c1.3,41.8,66,8.1,68.7,47.2
	c2.7,39.1,0,4,10.8,21.6c10.8,17.5,13.5,2.7,5.4-10.8c-8.1-13.5-24.3-55.3-49.9-68.7c-25.6-13.5-20.2,1.3-25.6-13.5
	c-5.4-14.8,25.6-12.1,37.7,0s8.1-18.9,21.6,0c13.5,18.9,35,14.8,33.7,31s-13.5,6.7,5.4,36.4c18.9,29.7,40.4,33.7,24.3,59.3
	c-16.2,25.6-12.1,40.4,1.3,53.9c13.5,13.5,51.2-2.7,51.2,20.2s24.3-10.8-21.6,1.3s-53.9,13.5-64.7-10.8s-6.7,21.6,5.4,39.1
	c12.1,17.5,14.8,6.7-20.2,2.7c-35-4-31-9.4-28.3,8.1c2.7,17.5,5.4,16.2-22.9,1.3c-28.3-14.8-91.9-26.2-74.1-1.3
	c13.5,18.9,8.1-5.4-6.7,22.9c-14.8,28.3-12.1,36.4-6.7,53.9c5.4,17.5-20.2,18.9,4,31s20.2-2.7,28.3,1.3c8.1,4,0,0,28.3,10.8
	c28.3,10.8,41.8,8.1,36.4,14.8c-5.4,6.7-5.4-8.1,14.8-5.4c20.2,2.7,4,8.1,36.4,0c32.3-8.1,4.1-2.7,24.3-9.4
	c20.2-6.7,37.7-29.7,40.4-21.6C693.5,1007.8,645,1069.8,624.8,1073.9z"/>
<path id="XMLID_187_" class="st47" d="M566.9,1083.8c0,0-116.7,18.4-145.1,8.6c-28.4-9.8-63.7-25.6-63.7-25.6l-53.9-29.4l4.9-5.9
	c0,0-51.9-37.2-68.6-133.2s22.5-89.1,22.5-89.1l25.5-88.2l30.4,25.1l64.6-59.1h64.2l32.8,19.6l59.7,31.2l40.2,48.9
	c0,0-83.3-63.7-130.3-38.2s-64.6,64.6-64.6,64.6l43.1-39.2l9.8,16.6l35.3-10.8l4.9,20.6c0,0,34.3-17.6,69.5-7.8s-32.3,9.8-32.3,9.8
	s-79.3,22.5-88.2,75.9l68.6-32.8c0,0,32.3-8.8,56.8-2c24.5,6.9,52.9,26.2,52.9,26.2s-90.1-10.7-113.6,21.2s-53.9,27-38.2,73
	c15.7,46,29.4,40.2,29.4,40.2s-25.7,22.5-62.3-15.7s-50.3-35.3-50.3-35.3l-26.4-28.4c0,0-17.6-2,13.7,34.3
	c31.3,36.2,26.4,46,26.4,46l22.5,21.5l58.9,15.7l-13.9-23.5c0,0,10.8,19.6,57.8,25.5c47,5.9,2.9-23.5,2.9-23.5s56.8,14.7,76.4,13.7
	s46-1,46-1l-49,38.2L566.9,1083.8z"/>
<path id="XMLID_186_" class="st48" d="M720.5,988.5c0,0,4.1,35.7-70.1,49.2c0,0,8,29.8-55.3,38.8c0,0-133.4,70.1-194.1-6l-67.4-31.4
	c0,0-60.7-56.7-60.7-83.6c0,0-39.1,7.5-27-70.1c0,0-24.3-59.7-12.1-119.4c0,0-18.9-20.9-3.4-70.1c15.5-49.2,16.9,49.2,16.9,49.2
	s13.5,26.9,10.8,47.8c0,0-1.3-23.2,17.5-38.1c18.9-14.9-31-58.7,45.8-118.7h18.9c0,0,25.6-45.6,61.9-48.6c0,0-10.8,19.2-5.4,31.1
	c5.4,11.9,6.7-21,44.5,16.3c0,0,27-6,36.4,2.9c0,0-16.2,26.8,17.5,37.3c33.7,10.4,49.9,22.4,58,38.8c8.1,16.4-58-55.2-113.2-23.9
	c-55.3,31.3-52.6,37.3-62,80.6c-9.4,43.3-21.6,31.3-33.7,44.8c-12.1,13.4,27-45.3,16.2,38.5c-10.8,83.8-18.9,76.4-18.9,76.4
	s64.7,41.8,52.6,61.2c-12.1,19.4,58,29.8,60.7,46.3c2.7,16.4,93,0,99.7,13.4c6.7,13.4,68.7-29.8,74.1-20.9
	C634.2,1039.1,720.5,988.5,720.5,988.5z"/>
<path id="XMLID_185_" class="st49" d="M568.2,1041.8l20.9-28.9c6.8-10.6,7.4-24,1.6-35.2l-2.4-4.7c0,0,17.6,0.9,21.5-14.8
	c3.9-15.7,8.8-7.9,8.8-7.9l-4.9,29.4l36.7-21.7c0,0-34.8,13.3-33.8,41.7s-16.2,32.8-16.2,32.8L568.2,1041.8z"/>
<path id="XMLID_184_" class="st50" d="M637.8,863.6l64.6-4.9c-19.7,34.4,47.2,30,39.3,6.9c-10.5-30.5-53.9-14.2-66.3-17.3
	c-30.1-7.5-42.1-15.4-38.2-9.8c0,0-38.2-7.8-22.5,0c15.7,7.8,4.9,26-32.3,31.1c-37.2,5.1-90.4,36.2-67.8,35.7
	c22.5-0.5-8.7-25,92.3-8.8c11.5,1.8-15.7,0.7,10.8-12s38.9,3.6,43.1-6.4C664.9,868.2,637.8,863.6,637.8,863.6z"/>
<path id="XMLID_183_" class="st50" d="M393.3,642.6c0,0,19.8-47.8,47.3-47.3c65.2,1.3-18.9,47.3-18.9,47.3l-20.6,14.7l-20.6,33.7
	c0,0,36.1-44.5,53.3-35.7c17.2,8.8,16.2,17.6,16.2,17.6s-92.2,19.4-136.5,118c-3,6.7,3.5-46,12.3-70.8
	c10.2-28.7,29.5-53.2,55.2-69.7L393.3,642.6z"/>
<path id="XMLID_182_" class="st47" d="M251.3,982.5c0,0-51.1-11.5-35.3-79.3c6.3-26.8,25.5,39.7,25.5,39.7L251.3,982.5z"/>
<path id="XMLID_181_" class="st49" d="M241,729.8c0,0,1.2-45.1,34.5-59.7s-0.1,25.9-0.1,25.9L241,758.2V729.8z"/>
<path id="XMLID_180_" class="st49" d="M654.9,805.2c-17.6,33.3-23.3-47-23.3-47l-24.7-23.5C606.9,734.7,672.5,771.9,654.9,805.2z"/>
<path id="XMLID_138_" class="st49" d="M516.5,1057.8c-42-42.1-9.5-1.3-9.5-1.3s-40.7-54-87.2-65c-136.3-32.2,16.5,38.7,16.5,38.7
	L516.5,1057.8z"/>
<path id="XMLID_137_" class="st49" d="M380.6,823.8c0,0,22.5-77.4,50.9-77.4c28.4,0-16.7,45.1-16.7,45.1S382.6,816,380.6,823.8z"/>
<path id="XMLID_136_" class="st49" d="M429.6,813.3c0,0,2.9-46.3,41.1-46.3s-19,32.3-30.1,42.1C429.6,818.9,429.6,813.3,429.6,813.3
	z"/>
<path id="XMLID_135_" class="st50" d="M550.5,1057.5c0,0-6.4-27.9-38-23.5c-31.7,4.4,18.5,17.5,28.5,22.2S550.5,1057.5,550.5,1057.5
	z"/>
<path id="XMLID_134_" class="st49" d="M564,1046.7c0,0,11.6-20.3,28-12.2s-15.4,10.6-22.3,12.6C562.8,1049.2,564,1046.7,564,1046.7z
	"/>
<path id="XMLID_133_" class="st50" d="M309,914.2c0,0-63.3-39.3-36.2-89.2c27.1-49.9,32.2,49.6,38.2,71.5
	C316.9,918.5,309,914.2,309,914.2z"/>
<path id="XMLID_132_" class="st51" d="M514.3,997.2c0,0-11.3-2.9-7.8,11.3c3.4,14.2,26,35.8,38.7,37.7c12.7,2,20.6-0.5,23-4.4
	C570.6,1037.8,532.4,998.2,514.3,997.2z"/>
<path id="XMLID_131_" class="st52" d="M550.5,1041.7c0,0,17.5,0.8,14.1-4.6c-17.9-27.7-42.2-39.1-53-41.1
	C500.8,994.1,514.8,1041.9,550.5,1041.7z"/>
<path id="XMLID_130_" class="st53" d="M478.1,961.1c0,0,1.7,0.2,4.4,3.4c2.7,3.2,5.4,4.6,5.4,4.6l3.4-2c0,0,10.8-1.5,15.2-2.1
	s8.6,1.1,10.3,0c0,0,5.6,5.3,10.3,7.2c4.7,2,10.8,0,10.8,0l3.2,0.9v6.5l-3.9,5.1c0,0-2.7,1.7-0.7,4.2c2,2.4,2.9,0,2.9,0l5.1-1.7
	l-1.5-2.7c0,0,6.4-6.4,7.8-8.9c1.5-2.6-4.9-8.4-9.1-11.6c-4.2-3.2-10.8-8.6-14.7-8.1s-2.7-1.5-2.7-1.5s4.9-13-6.1-9.1
	c0,0-3.7,1.7-3.7,3.9c0,2.2-1.5,4.2,0,6.9c1.5,2.7,3.2,2.7,3.2,2.7l-12.2-0.2c0,0-8.8,2.2-13,4.2c-4.2,2-6.5,1.3-6.5,1.3l-6-3.8
	L478.1,961.1z"/>
<path id="XMLID_129_" class="st53" d="M523.8,981.8c0,0-8.8,7.8-7.6,11.1c1.2,3.3,5.5,6.7,6.2,9.3c0.7,2.6,2.6,1.8,0.5,4.3
	c-2.1,2.4-6.4,5.3-5,5.8c1.3,0.5,4.7-2.1,7-2.2c2.3-0.1,4.2,0.5,4.4-1.7c0.2-2.2-2.2-4.2-2.2-4.2s0.9-6.7-1.6-9.4
	c-2.4-2.7-1-0.7-1-0.7s2.2-2.1,4.8-4.5s8.2-3.1,8.2-3.1l1.7,3.1c0,0-6,6.5-6.5,8.7c-0.5,2.2-0.2,4.9-0.2,4.9s2.2,3.3,2.6,4.9
	s2,6.9,2.8,8.3c0.9,1.5-3.3,6.4-3.3,6.4s-0.1,3.1,2,3.6c2.1,0.5,2.7-1.6,2.7-1.6s-0.2-1.1,2-3.7c0,0,4.7-0.7,2-4.8c0,0-0.6-7-2.3-11
	c-1.7-4-2-2.8-2-2.8s3.4-1.7,6.6-6.1c3.2-4.4-1.1-16.5-1.1-16.5L523.8,981.8z"/>
<path id="XMLID_128_" class="st53" d="M529.9,972.8L529,976l-7.2,5.6c0,0,7.2,1.3,7.4,4.5c0.2,3.2-2.1,2.9-2.1,2.9l5.9,1.8l0.6,0
	l-0.1,1.8l6.5-0.6c0,0,3.3,1.7,4,4.1s-1.5,0.9-1.5,0.9l3.5,0.6c0,0,0-6.3,1.8-7.3s4.6-13.2,2.1-15.3l-1.5-2.8c0,0-6.9,1.4-12.4-0.1
	c-5.4-1.5-6.3-1.6-6.3-1.6L529.9,972.8z"/>
</svg>
