<?xml version="1.0" encoding="utf-8"?>
<!-- Generator: Adobe Illustrator 19.0.0, SVG Export Plug-In . SVG Version: 6.00 Build 0)  -->
<svg version="1.1" id="Layer_1" xmlns="http://www.w3.org/2000/svg" xmlns:xlink="http://www.w3.org/1999/xlink" x="0px" y="0px"
	 viewBox="0 0 960 560" style="enable-background:new 0 0 960 560;" xml:space="preserve">
<style type="text/css">
	.st0{fill:#7B7B7C;}
	.st1{fill:#5CAAA8;}
	.st2{fill:#2B3F29;}
	.st3{fill:#44B28D;}
	.st4{fill:#F4B23D;}
	.st5{fill:none;stroke:#F9F9F9;stroke-miterlimit:10;}
	.st6{fill:#FFFFFF;stroke:#FAFCFC;stroke-miterlimit:10;}
	.st7{fill:none;stroke:#FAFCFC;stroke-miterlimit:10;}
	.st8{fill:#E1E5E5;}
	.st9{fill:#F9F908;}
	.st10{fill:#F4EAA6;}
	.st11{fill:#D3CAA3;}
	.st12{fill:#41465B;}
	.st13{fill:#1C1816;}
	.st14{fill:#D9D9DB;}
	.st15{fill:#0AE5A6;}
	.st16{fill:#2B3249;}
	.st17{fill:#50F9C0;}
	.st18{fill:#696B6B;}
	.st19{fill:#969696;}
	.st20{fill:#CCCBA8;}
	.st21{fill:#C3DBED;}
	.st22{fill:#494947;}
	.st23{fill:#93BEE5;}
	.st24{fill:#86B1B2;}
	.st25{fill:#FAF884;}
	.st26{opacity:0.42;fill:#BCBCBC;}
	.st27{opacity:0.42;fill:#FFFFFF;stroke:#614A31;stroke-miterlimit:10;}
	.st28{opacity:0.42;fill:#020000;}
	.st29{opacity:0.42;fill:#614A31;}
	.st30{opacity:0.38;}
	.st31{fill:#717772;stroke:#353535;stroke-miterlimit:10;}
	.st32{stroke:#6E706E;stroke-miterlimit:10;}
	.st33{fill:#F9EF3A;}
	.st34{opacity:0.81;}
	.st35{fill:none;stroke:#BFBFBF;stroke-miterlimit:10;}
	.st36{fill:#332D2A;stroke:#6E706E;stroke-miterlimit:10;}
	.st37{fill:#FFFFFF;stroke:#614A31;stroke-miterlimit:10;}
	.st38{fill:#614A31;}
	.st39{fill:#F4B276;}
	.st40{fill:#161616;}
	.st41{fill:#FF6961;}
	.st42{fill:#020316;}
	.st43{fill:#3F4142;}
	.st44{fill:#77DD77;}
	.st45{fill:#FFFFFF;}
	.st46{fill:#0CBBC9;}
	.st47{fill:#7DDDE5;}
	.st48{fill:#4093CC;}
	.st49{fill:#127784;}
	.st50{fill:#CCDDE7;}
	.st51{fill:#A02B10;}
	.st52{fill:#F44111;}
	.st53{fill:#0F0F0F;}
</style>
<path id="XMLID_63_" class="st0" d="M-667.2,470.2c0,0,0.9-5.8,4-5.7c3.1,0.1,7.2,4.1,7.2,4.1s5.8,3.8,3.4,6.5
	c-2.4,2.7-8.4,3.8-12,2.2C-668.1,475.8-667.2,470.2-667.2,470.2z"/>
<g id="XMLID_1_">
	<path id="XMLID_18_" class="st1" d="M-545.4,89c0,0,15.2-32.5,25.3-46.2"/>
	<g id="XMLID_2_">
		<polyline id="XMLID_93_" class="st2" points="-380.5,553.1 -186,335.5 -591.4,182.8 -815,315.7 -380.5,553.1 		"/>
		<polyline id="XMLID_92_" class="st3" points="-381,546.7 -186.6,329.1 -592,176.3 -815.6,309.2 -381,546.7 		"/>
		<polyline id="XMLID_91_" class="st4" points="-394,511.5 -781,306.5 -589,191.2 -224,332.4 -394,511.5 		"/>
		<polyline id="XMLID_90_" class="st5" points="-394.1,502.9 -770.7,304.9 -589.2,196.2 -233.1,333.2 -394.1,502.9 		"/>
		<line id="XMLID_88_" class="st6" x1="-674" y1="245.5" x2="-305.7" y2="411.1"/>
		<line id="XMLID_85_" class="st7" x1="-563.3" y1="415.2" x2="-387.6" y2="271.4"/>
		<line id="XMLID_83_" class="st7" x1="-648.3" y1="369.9" x2="-470.1" y2="241"/>
		<polygon id="XMLID_81_" class="st8" points="-613.4,332.7 -436,204 -432.8,239.9 -608.1,372.2 		"/>
		<polygon id="XMLID_80_" class="st9" points="-613.5,330.9 -610.5,330.6 -605.3,389.8 -608.1,392.7 		"/>
		<polygon id="XMLID_79_" class="st9" points="-436.9,205.7 -432.1,260.3 -428.2,257.2 -433,203.2 		"/>
		<path id="XMLID_24_" class="st10" d="M-680.6,257.9l3.6-19.2c0,0,0.3-8.5,6.6-13c6.3-4.5,17.9-8.9,17.9-8.9s8.5-0.4,12.5,2.7
			c4,3.1,3.6,17.9,3.6,17.9s-10.3,5.4-20.1,20.6c-9.8,15.2-19.7,16.1-19.7,16.1L-680.6,257.9z"/>
		<path id="XMLID_25_" class="st10" d="M-632.6,239.3l15.8-11.3l8.5-9l19.7-11.2c0,0,4.9-11.4,8.5-14.1c3.6-2.7,10.7-7.8,10.7-7.8
			h10.3c0,0,9.8,0.9,3.1,10.7s-25,16-25,16l-17,20.7l-24.6,16.2l-13.8,7.1L-632.6,239.3z"/>
		<path id="XMLID_27_" class="st10" d="M-716.4,256.5c0,0,0,6.3,2.7,9.4l3.6,3.6c0,0-4.3,5.7,0,13c4.3,7.2,8.8,8.5,8.8,8.5l9.9-14.7
			l-9.9-6.3l-2.6-3.6c0,0,2.5-6.3,2.6-9.8c0.1-3.6-2.6-13.9-2.6-13.9s-4.9-4-5.4,2.7c-0.4,6.7-0.9,1.8-0.9,1.8L-716.4,256.5z"/>
		<path id="XMLID_26_" class="st10" d="M-727.6,376.8c0,0-8,27.3-6.7,31.3c1.3,4-0.2,8-0.2,8s3.7,5.8,9.5,12.1s17,20.1,17,20.1
			l9.4,4.9l2.7-12.5c0,0-1.6,5.8-5.5-13c-3.9-18.8-9.3-12.7-9.3-12.7s4-14.5,11.2-19.4c2.9-2,5.4-6.6,7.5-11.4c3.1-7.2,5-15,5-15
			l-23.8-13.9L-727.6,376.8z"/>
		<path id="XMLID_29_" class="st10" d="M-658.8,388.3c0,0-2.8,20.9-4.3,25.5c0,0,12.7,10,4.3,21.4c0,0-6.1,20.1-13.9,19.6
			s-11.4-31.9-11.4-31.9s-6.5-4.6-7-10.5s-5-19.6-5-19.6l20.1-22.8L-658.8,388.3z"/>
		<path id="XMLID_73_" class="st11" d="M-613.6,233.8c0,0-2.7,1.2,4.5-3.4"/>
		<path id="XMLID_74_" class="st11" d="M-579,196.2v8c0,0,5-1.3,5.9,0s7.7-4,7.7-4l-6.8-6.7L-579,196.2z"/>
		<line id="XMLID_75_" class="st11" x1="-572" y1="195.8" x2="-565.3" y2="189.5"/>
		<line id="XMLID_76_" class="st11" x1="-568.7" y1="199" x2="-561.8" y2="192.6"/>
		<line id="XMLID_77_" class="st11" x1="-565.3" y1="200.2" x2="-559.5" y2="195.8"/>
		<line id="XMLID_78_" class="st11" x1="-578.7" y1="196.2" x2="-573.9" y2="189.5"/>
		<path id="XMLID_72_" class="st11" d="M-707,250.9c0,0-0.9-0.2,0,5.6l-3.7,2.7c0,0-4.8-1.3-3.9,2.7"/>
		<path id="XMLID_35_" d="M-714.6,474.2c0,0-9.4,3.1-5.8,7.2c3.6,4,17.7,0,17.7,0s4.1-8.9,11.3-13s10.8-11.2,10.8-11.2
			s-8-11.6-12-11.4c-4.1,0.2-13.4,10.1-13.4,10.1S-708,469.4-714.6,474.2z"/>
		<path id="XMLID_34_" d="M-676.2,445.8l-1.8,18.7c0,0,0.8,12.9,7.5,15.1c6.8,2.2,17.9,0,17.9,0s5.9-9.1-6-16.4c0,0-4.4-5.1-4.3-10
			C-662.8,453.2-672.2,452.9-676.2,445.8"/>
		<path id="XMLID_30_" class="st12" d="M-730,381.2v-17.9l3-8c0,0,0.6-2.7,2.8-11.2c2.2-8.5,5.8-20.9,5.8-20.9L-694,312h25.9
			l10.7,7.3c0,0,6.3,12.3,4.9,24.4c-1.3,12.1-3.5,31.7-3.5,31.7v17.4l-20,11.4l-15.3-11.8c0.1-26,2.6,0.3-9.6,0.3L-730,381.2z"/>
		<path id="XMLID_31_" class="st13" d="M-664.5,221.2c0,0,8.3-7.6,12.2-7.2c3.9,0.4,10.6-0.5,13.7,0c3.1,0.5,5.8,11.6,5.8,11.6
			s0.5,12.5-3.6,19.7c-4,7.2-12.3,5.4-12.3,5.4s-2-9.4,2.4-14.3s4-12.5,4-12.5l-13.8-5.7L-664.5,221.2z"/>
		<path id="XMLID_32_" class="st14" d="M-714.6,440.1c0,0,6.4-8.8,13.3-8.4l5.5,8.9l5,8.1l-11.9,11.1l-1.2-6.7L-714.6,440.1z"/>
		<path id="XMLID_28_" class="st14" d="M-679.5,437.2c0,0,11.8,6.2,16.5-0.4l2,14.8c0,0,0-0.1-9,3.1c-9,3.2-9.3-6.6-9.3-6.6
			L-679.5,437.2z"/>
		<path id="XMLID_23_" class="st15" d="M-718.3,323.4l5.8-15.6c0,0,10-3.1,6.6-18.1c-0.7-3.3,4.5-17.2,4.5-17.2l8.6-7.4
			c0,0,3.3-10.7,9.8-14.8c6.6-4.1,4.1,3.3,4.1,3.3l4.1,9.8c0,0,5.7-7.1,18-14s20.5-15.6,20.5-15.6h13.6c0,0-6.1,9.4,0,16
			c0,0-6.2,1.5-13.6,11.4c-7.4,9.8-6.6,17.3-6.6,17.3s-6.6,10.5-8.2,20.3s-0.8,14.6-0.8,14.6l-5.7,6
			C-657.4,319.3-710.3,315.3-718.3,323.4z"/>
		<path id="XMLID_64_" class="st16" d="M-708.8,337c0,0,19.9,8.2,21.6,21.9l-14.2-8.2c0,0,13.6,4.4,14.2,13.1
			c0.6,8.7-10.8-2.2-10.8-2.2s7.2-4.4,6.6,4.9c-0.6,9.3,1.9-1,8.7-15.8s12.2-18.6,12.2-18.6s-12.8,7.4-16.8,12.6
			C-691.2,349.8-708.8,337-708.8,337z"/>
		<path id="XMLID_65_" class="st17" d="M-699.4,295.4c0,0,23.4-17.9,38.8-25c15.3-7.2,8.1,0,8.1,0l-28.1,14.7c0,0-15.2,7.2-6.3,5.8
			c8.9-1.3,30.5-18.3,30.9-14.3c0.4,4-12.4,9.8-12.4,9.8s-23.5,18.8-34.3,21.5s-3.5-5.9-3.5-5.9s5.5-1.3,12.2-4.4
			S-699.4,295.4-699.4,295.4z"/>
		<path id="XMLID_67_" class="st17" d="M-686.9,303.9c0,0,9.8-9.8,22.3-13s15.9-3.1,15.9-3.1s-9.2,4-15.9,6.2
			c-6.7,2.2,2.1,1.3-3.9,5.4s-7.8,5.1-16.7,9c-8.9,3.9-8.9,3.9-8.9,3.9l-9.8-1.8c0,0,1.3,1,8-2.2
			C-689.1,305.3-686.9,303.9-686.9,303.9z"/>
		<path id="XMLID_69_" class="st11" d="M-660.6,226.6l4-1.1l4-1.1l-3.4,7.8C-656,232.1-656.7,220.8-660.6,226.6z"/>
		<path id="XMLID_66_" class="st11" d="M-650.8,228.3l2.2,4.2C-648.7,232.4-645.2,228-650.8,228.3z"/>
		<path id="XMLID_70_" class="st11" d="M-660.6,223l4,2.5C-656.6,225.5-654.1,222.4-660.6,223z"/>
		<path id="XMLID_71_" class="st11" d="M-669.9,241.5c0,0-2.7-2.4-3.8,6.1c-1.1,8.5,0,5.4,0,5.4"/>
		<path id="XMLID_33_" class="st18" d="M-707,245.4l33.5-38c0,0-12.5-21,23.3-38.4c19.7-6.3,17.3,12.1,17.3,12.1
			c-2,14.3-17.3,26.1-17.3,26.1s-8.1,5.7-19.6,3l-33.1,37.5L-707,245.4z"/>
		<path id="XMLID_8_" class="st19" d="M-672,206c0,0-7.4-6.9,6.1-22.3c13.4-15.4,21.7-15.6,26.9-13c5.2,2.7,3.6,8,2.7,13.4
			c-0.9,5.4-2,6-10.3,14.9c-8.3,8.8-11.6,8.6-11.6,8.6S-665.5,211-672,206z"/>
		<path id="XMLID_47_" class="st20" d="M-577.5,135.5c0,0-38.2,12-31.2,45.1S-563,208-563,208l16.3-6.4l7-2.7
			C-539.8,198.8-505,133.9-577.5,135.5z"/>
		<path id="XMLID_46_" class="st21" d="M-419.9,63.7l22.6,16.6l-2.5,17.5l16,16.8l-7.7,17.8l10.7,18.6l-10.9,16.7l5.4,25.7l-18,7.1
			l-3.3,15.5l-27.4,3.8l7.9,4.6l-15.7,6.2l-33.4-8.2l17.5,10.4l-36.7-9.7l-10.9,1.6l-21.3-18.5c0,0-11-4.1-39-15.5
			s-4.1-71.4-4.1-71.4s-4.4-38.6,3.5-37.1s2.9-4.5,2.9-4.5"/>
		<path id="XMLID_45_" class="st22" d="M-566.8,126.9c0,0-23.8,8.3-29.9,28.1c-1.8,5.8-2.1,12.5,0.1,20.3
			c9.7,34.7,46.6,29.5,64.9,20c0,0-42.9,13.9-54.6-19.4C-598.2,142.7-566.8,126.9-566.8,126.9z"/>
		<path id="XMLID_44_" class="st23" d="M-537.9,70l-11.5,29.1l-8.4,9.2l7.2,2l-0.2,17.4l4,10.2l-5.1,10.3l12.1,16.7l-0.8,10
			l11.1,6.9l5.1,13l15,7.2l13.4,14.1l19.2,9.5c0,0,15.1,13.6-45.2-15.9c-71.7-19.8-54.6-75-54.6-75l4.1-28.1l10.3-24.1l20.7-32.4"/>
		<polyline id="XMLID_43_" class="st24" points="-508.1,56.2 -560.7,121.9 -557.1,95.6 -540,51.9 		"/>
		<path id="XMLID_42_" class="st24" d="M-475.1,31c0,0,0.6,27.4-63.8,74.8l-23,23.3l18.1-34.1l22-49"/>
		<path id="XMLID_41_" class="st24" d="M-448.5,54.1c-12.4,12.9-46.1,36.3-46.1,36.3l-26.9,16l-44.3,41.6l5.8-14.3l36.3-33.1
			l11.4-30.8"/>
		<polyline id="XMLID_40_" class="st24" points="-422.2,69.9 -489.4,113.9 -504.8,116.6 -558.7,150.9 -560.6,146 -508.2,108 
			-495,81.5 -452.1,52.2 		"/>
		<path id="XMLID_39_" class="st24" d="M-414,77l16.8,3.5l-6.1,25.3c0,0-33.5,24.6-81.7,22.5l-63.7,23.9l61.1-28.8l9.7-21.3L-414,77
			"/>
		<path id="XMLID_38_" class="st24" d="M-542,160.3l65.9-22.9l20.4-13l55.4-19.4l16.5,9.5l-12,22.2c0,0-25.5,22.8-85.2,12.8
			L-542,160.3z"/>
		<path id="XMLID_37_" class="st24" d="M-538.6,168.9l59.4-8.6l20.6-12.1l66.3-2.7l11.6,5.5l-15.3,20.8c0,0-22.8,15.9-80.4-4.5
			L-538.6,168.9z"/>
		<path id="XMLID_36_" class="st24" d="M-536,175.4l56.6,3.1l30.9-12.2l56.5,7.7l5.7,19c0,0-18.8,28.2-95.4-7L-536,175.4z"/>
		<path id="XMLID_17_" class="st24" d="M-541.9,180.4l54.2,12.1l25.7-2.1l52.3,15.1l2.1,10.4c0,0-28.2,3.3-53-0.1
			c-24.8-3.4-40.7-19.3-40.7-19.3l-42.6-8l-3.2-8.1L-541.9,180.4z"/>
		<path id="XMLID_16_" class="st24" d="M-533.8,185.7l41.2,16.7l20.7,1.8l39.2,18.7l0.2,8.4c0,0-22.8-1.2-42-7.2
			c-19.2-6-29.4-20.5-29.4-20.5l-32.6-12l-1.4-6.7L-533.8,185.7z"/>
		<path id="XMLID_19_" class="st1" d="M-516.9,95.2c0,0,41.9-28.3,57.8-50.9"/>
		<path id="XMLID_15_" class="st1" d="M-533.8,93.1c0,0,34.2-37.6,42.7-61.8"/>
		<path id="XMLID_14_" class="st1" d="M-503.8,106.4c0,0,53.1-28.6,71.7-49.7"/>
		<path id="XMLID_13_" class="st1" d="M-481.6,122.5c0,0,31.5-9.4,74.9-37.3"/>
		<path id="XMLID_12_" class="st1" d="M-479.6,145.6c0,0,61.7-10.2,86.2-26.6"/>
		<path id="XMLID_11_" class="st1" d="M-469,162.2c0,0,47.3-9.3,75.1-8.8"/>
		<path id="XMLID_10_" class="st1" d="M-470.1,183.4c0,0,57.8,0,76.7,5.3"/>
		<path id="XMLID_9_" class="st1" d="M-476.5,197.7c0,0,39.7,7.2,54.3,12.7"/>
		<path id="XMLID_7_" class="st1" d="M-495.6,205.3c0,0,44.3,17.1,51.4,19.7"/>
	</g>
</g>
<g id="XMLID_89_">
	<ellipse id="XMLID_114_" class="st25" cx="553.6" cy="265.5" rx="198.6" ry="192.8"/>
	<path id="XMLID_113_" class="st26" d="M468.7,348.5l169.5-165.4l112,110.4c-1,26.2-42,149.1-169.5,162.9L468.7,348.5z"/>
	<path id="XMLID_112_" class="st27" d="M673.4,265.6c0,64.4-53.8,116.6-120.2,116.6c-32.9,0-62.8-12.9-84.5-33.7
		c-22-21.1-35.7-50.5-35.7-82.9c0-64.4,53.8-116.6,120.2-116.6c33.2,0,63.2,13.1,85,34.2C659.9,204.2,673.4,233.4,673.4,265.6z"/>
	<polygon id="XMLID_111_" class="st28" points="446.7,265.6 474.4,308.5 506,291.5 506,241 473.9,224.5 	"/>
	<path id="XMLID_110_" class="st28" d="M468.7,182.7l12,7.8c0,0,23.5-18.5,39.5-21.5l-1.8-15.1C518.4,153.9,490.1,161.3,468.7,182.7
		z"/>
	<polygon id="XMLID_109_" class="st28" points="553.6,180 553.2,214.3 598.7,240.6 630.2,221.3 606.2,180 	"/>
	<path id="XMLID_108_" class="st28" d="M657.2,245c0,0,5,26,0,42l12.6,6.7c0,0,8.2-28,0-53.2L657.2,245z"/>
	<polygon id="XMLID_107_" class="st28" points="599,293.9 630.1,311.1 605.7,355 553.2,355 553.6,317.8 	"/>
	<path id="XMLID_106_" class="st28" d="M481,342.6c0,0,25.3,18.4,38.2,20.9V378c0,0-25.5-6-50.9-29.5L481,342.6z"/>
	<line id="XMLID_105_" class="st29" x1="474" y1="224.5" x2="480.7" y2="190.5"/>
	<line id="XMLID_104_" class="st29" x1="520.2" y1="169" x2="553.6" y2="180"/>
	<line id="XMLID_103_" class="st29" x1="606.2" y1="180" x2="614.1" y2="165.1"/>
	<line id="XMLID_102_" class="st29" x1="506.2" y1="241" x2="553.2" y2="214.3"/>
	<line id="XMLID_101_" class="st29" x1="506.2" y1="291.5" x2="553.6" y2="317.8"/>
	<line id="XMLID_100_" class="st29" x1="474.5" y1="308.5" x2="481" y2="342.6"/>
	<path id="XMLID_99_" class="st29" d="M433.2,266h13H433.2z"/>
	<line id="XMLID_98_" class="st29" x1="598.7" y1="240.6" x2="599" y2="293.9"/>
	<line id="XMLID_97_" class="st29" x1="630.2" y1="221.3" x2="657.2" y2="245"/>
	<line id="XMLID_96_" class="st29" x1="630.1" y1="311.1" x2="657.2" y2="287"/>
	<line id="XMLID_95_" class="st29" x1="605.7" y1="355" x2="614.1" y2="366.1"/>
	<line id="XMLID_94_" class="st29" x1="519.2" y1="363.5" x2="553.2" y2="355"/>
</g>
<g id="XMLID_84_" class="st30">
	<polygon id="XMLID_87_" class="st31" points="284.5,339.8 314.3,324.5 515.4,324.5 545.5,339.8 545.5,231.5 533.3,239 297.7,239.5 
		284.5,231.5 	"/>
	<polygon id="XMLID_86_" class="st32" points="281.5,342.4 281.5,229.5 548.5,229.5 548.5,342.5 542,342.5 542.4,232.9 288.2,233.8 
		288.5,342.6 	"/>
</g>
<line id="XMLID_82_" class="st32" x1="460.7" y1="259.4" x2="445.7" y2="330.8"/>
<line id="XMLID_68_" class="st32" x1="446.2" y1="259.8" x2="460.3" y2="330.8"/>
<g id="XMLID_62_">
	<g id="XMLID_140_">
		<polygon id="XMLID_179_" class="st33" points="267.5,257.8 265.7,258.8 263.3,254.6 265.1,253.6 		"/>
		<polygon id="XMLID_178_" class="st33" points="262.4,260.7 259.1,262.9 256.5,258.9 259.8,256.7 		"/>
		<polygon id="XMLID_177_" class="st33" points="255.9,265 252.8,267.5 250,263.8 253.1,261.4 		"/>
		<polygon id="XMLID_176_" class="st33" points="249.8,269.9 246.9,272.5 243.9,269.3 246.8,266.6 		"/>
		<polygon id="XMLID_175_" class="st33" points="244.2,275.2 241.6,278.2 238.4,275.4 241,272.3 		"/>
		<polygon id="XMLID_174_" class="st33" points="239.3,281.1 237,284.4 233.6,282 235.8,278.7 		"/>
		<polygon id="XMLID_173_" class="st33" points="235.1,287.5 233.3,291.1 229.7,289.3 231.4,285.7 		"/>
		<polygon id="XMLID_172_" class="st33" points="231.9,294.5 230.7,298.3 227,297.2 228.2,293.3 		"/>
		<polygon id="XMLID_171_" class="st33" points="229.9,301.9 229.4,305.8 225.7,305.4 226.2,301.4 		"/>
		<polygon id="XMLID_170_" class="st33" points="229.2,309.5 229.3,313.5 225.8,313.6 225.6,309.7 		"/>
		<polygon id="XMLID_169_" class="st33" points="229.8,317.2 230.6,321.1 227.3,321.8 226.4,317.9 		"/>
		<polygon id="XMLID_168_" class="st33" points="231.6,324.7 232.8,328.5 229.7,329.5 228.4,325.8 		"/>
		<polygon id="XMLID_167_" class="st33" points="234.1,332.2 235.6,335.9 232.7,337 231.2,333.3 		"/>
		<polygon id="XMLID_166_" class="st33" points="237.1,339.5 238.7,343.1 236.1,344.3 234.4,340.7 		"/>
		<polygon id="XMLID_165_" class="st33" points="240.5,346.6 242.3,350.1 239.9,351.5 238,348 		"/>
		<polygon id="XMLID_164_" class="st33" points="244.3,353.5 246.3,357 244.1,358.3 242,355 		"/>
		<polygon id="XMLID_163_" class="st33" points="248.4,360.3 250.7,363.6 248.6,365 246.3,361.7 		"/>
		<polygon id="XMLID_162_" class="st33" points="252.9,366.8 255.3,369.9 253.5,371.4 251,368.2 		"/>
		<polygon id="XMLID_161_" class="st33" points="257.8,373 260.3,376.1 258.6,377.5 256,374.5 		"/>
		<polygon id="XMLID_160_" class="st33" points="262.9,379.1 265.5,382.1 264,383.4 261.3,380.5 		"/>
		<polygon id="XMLID_159_" class="st33" points="268.2,385 271,387.8 269.6,389.2 266.8,386.3 		"/>
		<polygon id="XMLID_158_" class="st33" points="273.8,390.6 276.6,393.4 275.4,394.7 272.5,392 		"/>
		<polygon id="XMLID_157_" class="st33" points="279.5,396.2 282.4,398.9 281.4,400 278.4,397.4 		"/>
		<polygon id="XMLID_156_" class="st33" points="285.4,401.5 288.4,404.1 287.4,405.2 284.4,402.7 		"/>
		<polygon id="XMLID_155_" class="st33" points="291.4,406.7 294.4,409.3 293.6,410.3 290.5,407.8 		"/>
		<polygon id="XMLID_154_" class="st33" points="297.5,411.9 300.6,414.4 299.9,415.3 296.7,412.8 		"/>
		<polygon id="XMLID_153_" class="st33" points="303.7,416.9 306.8,419.3 306.2,420.1 303,417.7 		"/>
		<polygon id="XMLID_152_" class="st33" points="310,421.8 313.1,424.2 312.6,424.9 309.4,422.5 		"/>
		<polygon id="XMLID_151_" class="st33" points="316.3,426.6 319.5,429 319.1,429.6 315.8,427.2 		"/>
		<polygon id="XMLID_150_" class="st33" points="322.7,431.4 325.9,433.8 325.6,434.2 322.3,431.9 		"/>
		<polygon id="XMLID_149_" class="st33" points="329.1,436.1 332.3,438.5 332.1,438.8 328.8,436.5 		"/>
		<polygon id="XMLID_148_" class="st33" points="335.6,440.8 338.8,443.1 338.6,443.3 335.4,441.1 		"/>
		<polygon id="XMLID_147_" class="st33" points="342,445.4 345.3,447.8 345.2,447.8 341.9,445.6 		"/>
		<polygon id="XMLID_146_" class="st33" points="348.7,450.1 350.3,451.3 348.7,450.2 		"/>
		<g id="XMLID_144_">
			<polygon id="XMLID_145_" class="st33" points="253.6,252.8 265,256.4 261.4,267.9 267.8,264.6 271.4,253.1 259.9,249.5 			"/>
		</g>
	</g>
</g>
<g id="XMLID_58_" class="st34">
	<polygon id="XMLID_60_" class="st35" points="285.5,340.6 314.9,325.5 515.9,325.5 545.5,340.6 545.5,232.9 533.5,240.4 
		298.4,240.8 285.5,232.9 	"/>
	<polygon id="XMLID_59_" class="st36" points="281.5,343.2 281.5,229.5 548.5,229.5 548.5,343.5 541.7,343.5 542.1,234.4 
		288.1,235.2 288.5,343.4 	"/>
</g>
<g id="XMLID_54_">
	<g id="XMLID_56_">
		<g id="XMLID_57_">
			<path id="XMLID_273_" class="st37" d="M247.9,319.4c0,10.9-9.1,19.8-20.4,19.8c-5.6,0-10.7-2.2-14.4-5.7
				c-3.7-3.6-6.1-8.6-6.1-14.1c0-10.9,9.1-19.8,20.4-19.8c5.6,0,10.7,2.2,14.4,5.8C245.7,309,247.9,313.9,247.9,319.4z"/>
			<polygon id="XMLID_272_" class="st38" points="209.4,319.4 213.9,326.7 219,323.8 219,315.2 213.8,312.4 			"/>
			<path id="XMLID_271_" class="st38" d="M213.2,305.3l2,1.3c0,0,4-3.1,6.7-3.7l-0.3-2.6C221.6,300.4,216.8,301.7,213.2,305.3z"/>
			<polygon id="XMLID_270_" class="st38" points="227.6,305 227.5,310.8 235.3,315.2 240.6,312 236.5,305 			"/>
			<polygon id="XMLID_268_" class="st38" points="235.3,324.2 240.6,327.4 236.4,335 227.5,335 227.6,328.5 			"/>
			<path id="XMLID_267_" class="st38" d="M215.2,332.5c0,0,4.3,3.1,6.5,3.6v2.5c0,0-4.3-1-8.7-5L215.2,332.5z"/>
			<line id="XMLID_266_" class="st38" x1="214.1" y1="312.4" x2="215.2" y2="306.7"/>
			<line id="XMLID_265_" class="st38" x1="221.9" y1="303" x2="227.6" y2="304.9"/>
			<line id="XMLID_263_" class="st38" x1="219.5" y1="315.2" x2="227.5" y2="310.7"/>
			<line id="XMLID_262_" class="st38" x1="219.5" y1="323.8" x2="227.6" y2="328.3"/>
			<line id="XMLID_259_" class="st38" x1="235.3" y1="315.2" x2="235.3" y2="324.2"/>
			<line id="XMLID_256_" class="st38" x1="236.4" y1="334.6" x2="237.9" y2="336.5"/>
			<line id="XMLID_204_" class="st38" x1="221.7" y1="336.1" x2="227.5" y2="334.6"/>
		</g>
		<path id="XMLID_193_" class="st39" d="M416.3,129h58c0,0,8,1-2,13h-2l0.3,55.8l-25.4,18.7l-24.6-17.3L420,142
			C420,142,408.7,136,416.3,129z"/>
		<polygon id="XMLID_191_" class="st39" points="506.3,303 510,303 510,289 515,289 515,309 509.5,313.9 		"/>
		<polygon id="XMLID_194_" class="st39" points="373.6,307.9 380.5,311.7 382.4,302.3 377,299.1 377,289 373.7,289 		"/>
		<polygon id="XMLID_195_" class="st39" points="398.5,365.1 393.3,423 405.3,423 415.3,373.4 		"/>
		<polygon id="XMLID_196_" class="st39" points="474,375.7 484,419.3 496.7,420.7 492,364.8 		"/>
		<path id="XMLID_192_" class="st40" d="M445,174.7c0,0-22.7-26.7-24.7-38s-8.7-32,0-44c0,0-2-8,16.7-19.3c0,0,8.7-6,5.7-12.3
			s6.3,3-0.7,12c0,0,12-6.3,3-16.3c0,0,9.3,6.7,7,13.3c0,0,3-1.7,2.7-4.7c-0.3-3,2,6,1.7,8.7c0,0,9,3,12,12.3s6,13.7,6,13.7
			s1.7,25-4.3,37S452,168.7,445,174.7z"/>
		<path id="XMLID_197_" class="st41" d="M394,197.4l25-16.9l51.6-0.2l25.4,16.1c0,0,20.7,47.8,19.8,104.9h-4.5
			c0,0-8.7-66.3-25.7-72.7l-1,67.6h-79.3l-2-67.9c0,0-19.3,17.9-24.3,73h-5.7C373.3,301.5,373,254.8,394,197.4z"/>
		<polygon id="XMLID_199_" class="st42" points="405.3,296 484.3,296 493,378 457.3,378 444.7,342.2 433,378 397.3,378 		"/>
		<path id="XMLID_200_" class="st43" d="M393.3,418h13l-11.7,49.9c0,0-2,2.8-5.7,0.1L393.3,418z"/>
		<path id="XMLID_201_" class="st43" d="M483.3,418h13l6,48.9c0,0-1,6.8-6.3,2.3L483.3,418z"/>
		<ellipse id="XMLID_203_" class="st44" cx="469" cy="489.9" rx="118.7" ry="16.1"/>
		<path id="XMLID_198_" class="st40" d="M379.7,481c0,0,10.7,5,15,0c0,0,4-7,1.7-12.3c-2.3-5.3-8-2-8-2l-8.7,6.3
			C379.7,473,369,477.3,379.7,481z"/>
		<path id="XMLID_202_" class="st40" d="M495.7,480c0,0,1.7,7.3,15,0c13.3-7.3,0-8,0-8s-6.7-7.4-11.3-6.4
			C494.7,466.7,491.7,472.3,495.7,480z"/>
		<path id="XMLID_269_" class="st38" d="M245.2,315.9c0,0,0.8,4.4,0,7.1l2.1,1.1c0,0,1.4-4.8,0-9L245.2,315.9z"/>
		<line id="XMLID_264_" class="st38" x1="456.5" y1="459.9" x2="457.9" y2="457.3"/>
		<line id="XMLID_261_" class="st38" x1="434.1" y1="481.7" x2="435.2" y2="487.5"/>
		<path id="XMLID_260_" class="st38" d="M427.1,474h2.2H427.1z"/>
		<line id="XMLID_258_" class="st38" x1="241.6" y1="311.9" x2="246.2" y2="315.9"/>
		<line id="XMLID_257_" class="st38" x1="239.6" y1="329.2" x2="244.2" y2="325.1"/>
	</g>
	<polygon id="XMLID_55_" class="st45" points="431,230 456,230 442.2,267.8 441.8,259 450.7,234 431,234 	"/>
</g>
<path id="XMLID_188_" class="st46" d="M-355.2,1073.9c-20.2,4,6.7,24.3-39.1,22.9s-95.7,60.7-171.2,22.9c-75.5-37.7-8.1-6.7-8.1-6.7
	s-99.7-18.9-94.4-44.5c5.4-25.6-75.5-68.7-91.7-165.8c-16.2-97,0-76.8,0-76.8s5.4-128.1,41.8-145.6c36.4-17.5,13.5,9.4,13.5,9.4
	s43.1-58,89-60.7c45.8-2.7,9.4,24.3,9.4,24.3s-20.2,22.9,13.5,18.9c33.7-4,44.5-36.4,55.3-12.1s89-17.5,90.3,24.3
	c1.3,41.8,66,8.1,68.7,47.2c2.7,39.1,0,4,10.8,21.6c10.8,17.5,13.5,2.7,5.4-10.8s-24.3-55.3-49.9-68.7
	c-25.6-13.5-20.2,1.3-25.6-13.5c-5.4-14.8,25.6-12.1,37.7,0s8.1-18.9,21.6,0c13.5,18.9,35,14.8,33.7,31s-13.5,6.7,5.4,36.4
	s40.4,33.7,24.3,59.3s-12.1,40.4,1.3,53.9s51.2-2.7,51.2,20.2s24.3-10.8-21.6,1.3s-53.9,13.5-64.7-10.8s-6.7,21.6,5.4,39.1
	c12.1,17.5,14.8,6.7-20.2,2.7c-35-4-31-9.4-28.3,8.1c2.7,17.5,5.4,16.2-22.9,1.3c-28.3-14.8-91.9-26.2-74.1-1.3
	c13.5,18.9,8.1-5.4-6.7,22.9c-14.8,28.3-12.1,36.4-6.7,53.9c5.4,17.5-20.2,18.9,4,31c24.3,12.1,20.2-2.7,28.3,1.3
	c8.1,4,0,0,28.3,10.8s41.8,8.1,36.4,14.8c-5.4,6.7-5.4-8.1,14.8-5.4c20.2,2.7,4,8.1,36.4,0c32.3-8.1,4.1-2.7,24.3-9.4
	c20.2-6.7,37.7-29.7,40.4-21.6C-286.5,1007.8-335,1069.8-355.2,1073.9z"/>
<path id="XMLID_187_" class="st47" d="M-413.1,1083.8c0,0-116.7,18.4-145.1,8.6s-63.7-25.6-63.7-25.6l-53.9-29.4l4.9-5.9
	c0,0-51.9-37.2-68.6-133.2s22.5-89.1,22.5-89.1l25.5-88.2l30.4,25.1l64.6-59.1h64.2l32.8,19.6l59.7,31.2l40.2,48.9
	c0,0-83.3-63.7-130.3-38.2s-64.6,64.6-64.6,64.6l43.1-39.2l9.8,16.6l35.3-10.8l4.9,20.6c0,0,34.3-17.6,69.5-7.8s-32.3,9.8-32.3,9.8
	s-79.3,22.5-88.2,75.9l68.6-32.8c0,0,32.3-8.8,56.8-2c24.5,6.9,52.9,26.2,52.9,26.2s-90.1-10.7-113.6,21.2s-53.9,27-38.2,73
	c15.7,46,29.4,40.2,29.4,40.2s-25.7,22.5-62.3-15.7c-36.6-38.2-50.3-35.3-50.3-35.3l-26.4-28.4c0,0-17.6-2,13.7,34.3
	c31.3,36.2,26.4,46,26.4,46l22.5,21.5l58.9,15.7l-13.9-23.5c0,0,10.8,19.6,57.8,25.5c47,5.9,2.9-23.5,2.9-23.5s56.8,14.7,76.4,13.7
	c19.6-1,46-1,46-1l-49,38.2L-413.1,1083.8z"/>
<path id="XMLID_186_" class="st48" d="M-259.5,988.5c0,0,4.1,35.7-70.1,49.2c0,0,8,29.8-55.3,38.8c0,0-133.4,70.1-194.1-6
	l-67.4-31.4c0,0-60.7-56.7-60.7-83.6c0,0-39.1,7.5-27-70.1c0,0-24.3-59.7-12.1-119.4c0,0-18.9-20.9-3.4-70.1
	c15.5-49.2,16.9,49.2,16.9,49.2s13.5,26.9,10.8,47.8c0,0-1.3-23.2,17.5-38.1c18.9-14.9-31-58.7,45.8-118.7h18.9
	c0,0,25.6-45.6,61.9-48.6c0,0-10.8,19.2-5.4,31.1c5.4,11.9,6.7-21,44.5,16.3c0,0,27-6,36.4,2.9c0,0-16.2,26.8,17.5,37.3
	c33.7,10.4,49.9,22.4,58,38.8c8.1,16.4-58-55.2-113.2-23.9c-55.3,31.3-52.6,37.3-62,80.6c-9.4,43.3-21.6,31.3-33.7,44.8
	c-12.1,13.4,27-45.3,16.2,38.5s-18.9,76.4-18.9,76.4s64.7,41.8,52.6,61.2c-12.1,19.4,58,29.8,60.7,46.3c2.7,16.4,93,0,99.7,13.4
	c6.7,13.4,68.7-29.8,74.1-20.9C-345.8,1039.1-259.5,988.5-259.5,988.5z"/>
<path id="XMLID_185_" class="st49" d="M-411.8,1041.8l20.9-28.9c6.8-10.6,7.4-24,1.6-35.2l-2.4-4.7c0,0,17.6,0.9,21.5-14.8
	c3.9-15.7,8.8-7.9,8.8-7.9l-4.9,29.4l36.7-21.7c0,0-34.8,13.3-33.8,41.7c1,28.4-16.2,32.8-16.2,32.8L-411.8,1041.8z"/>
<path id="XMLID_184_" class="st50" d="M-342.2,863.6l64.6-4.9c-19.7,34.4,47.2,30,39.3,6.9c-10.5-30.5-53.9-14.2-66.3-17.3
	c-30.1-7.5-42.1-15.4-38.2-9.8c0,0-38.2-7.8-22.5,0c15.7,7.8,4.9,26-32.3,31.1s-90.4,36.2-67.8,35.7c22.5-0.5-8.7-25,92.3-8.8
	c11.5,1.8-15.7,0.7,10.8-12c26.4-12.7,38.9,3.6,43.1-6.4S-342.2,863.6-342.2,863.6z"/>
<path id="XMLID_183_" class="st50" d="M-586.7,642.6c0,0,19.8-47.8,47.3-47.3c65.2,1.3-18.9,47.3-18.9,47.3l-20.6,14.7l-20.6,33.7
	c0,0,36.1-44.5,53.3-35.7c17.2,8.8,16.2,17.6,16.2,17.6s-92.2,19.4-136.5,118c-3,6.7,3.5-46,12.3-70.8
	c10.2-28.7,29.5-53.2,55.2-69.7L-586.7,642.6z"/>
<path id="XMLID_182_" class="st47" d="M-728.7,982.5c0,0-51.1-11.5-35.3-79.3c6.3-26.8,25.5,39.7,25.5,39.7L-728.7,982.5z"/>
<path id="XMLID_181_" class="st49" d="M-739,729.8c0,0,1.2-45.1,34.5-59.7s-0.1,25.9-0.1,25.9l-34.4,62.3V729.8z"/>
<path id="XMLID_180_" class="st49" d="M-325.1,805.2c-17.6,33.3-23.3-47-23.3-47l-24.7-23.5C-373.1,734.7-307.5,771.9-325.1,805.2z"
	/>
<path id="XMLID_138_" class="st49" d="M-463.5,1057.8c-42-42.1-9.5-1.3-9.5-1.3s-40.7-54-87.2-65c-136.3-32.2,16.5,38.7,16.5,38.7
	L-463.5,1057.8z"/>
<path id="XMLID_137_" class="st49" d="M-599.4,823.8c0,0,22.5-77.4,50.9-77.4s-16.7,45.1-16.7,45.1S-597.4,816-599.4,823.8z"/>
<path id="XMLID_136_" class="st49" d="M-550.4,813.3c0,0,2.9-46.3,41.1-46.3s-19,32.3-30.1,42.1S-550.4,813.3-550.4,813.3z"/>
<path id="XMLID_135_" class="st50" d="M-429.5,1057.5c0,0-6.4-27.9-38-23.5c-31.7,4.4,18.5,17.5,28.5,22.2
	S-429.5,1057.5-429.5,1057.5z"/>
<path id="XMLID_134_" class="st49" d="M-416,1046.7c0,0,11.6-20.3,28-12.2c16.3,8.1-15.4,10.6-22.3,12.6
	C-417.2,1049.2-416,1046.7-416,1046.7z"/>
<path id="XMLID_133_" class="st50" d="M-671,914.2c0,0-63.3-39.3-36.2-89.2c27.1-49.9,32.2,49.6,38.2,71.5
	C-663.1,918.5-671,914.2-671,914.2z"/>
<path id="XMLID_132_" class="st51" d="M-465.7,997.2c0,0-11.3-2.9-7.8,11.3c3.4,14.2,26,35.8,38.7,37.7c12.7,2,20.6-0.5,23-4.4
	C-409.4,1037.8-447.6,998.2-465.7,997.2z"/>
<path id="XMLID_131_" class="st52" d="M-429.5,1041.7c0,0,17.5,0.8,14.1-4.6c-17.9-27.7-42.2-39.1-53-41.1
	C-479.2,994.1-465.2,1041.9-429.5,1041.7z"/>
<path id="XMLID_130_" class="st53" d="M-501.9,961.1c0,0,1.7,0.2,4.4,3.4c2.7,3.2,5.4,4.6,5.4,4.6l3.4-2c0,0,10.8-1.5,15.2-2.1
	s8.6,1.1,10.3,0c0,0,5.6,5.3,10.3,7.2c4.7,2,10.8,0,10.8,0l3.2,0.9v6.5l-3.9,5.1c0,0-2.7,1.7-0.7,4.2c2,2.4,2.9,0,2.9,0l5.1-1.7
	l-1.5-2.7c0,0,6.4-6.4,7.8-8.9c1.5-2.6-4.9-8.4-9.1-11.6c-4.2-3.2-10.8-8.6-14.7-8.1c-3.9,0.5-2.7-1.5-2.7-1.5s4.9-13-6.1-9.1
	c0,0-3.7,1.7-3.7,3.9c0,2.2-1.5,4.2,0,6.9c1.5,2.7,3.2,2.7,3.2,2.7l-12.2-0.2c0,0-8.8,2.2-13,4.2c-4.2,2-6.5,1.3-6.5,1.3l-6-3.8
	L-501.9,961.1z"/>
<path id="XMLID_129_" class="st53" d="M-456.2,981.8c0,0-8.8,7.8-7.6,11.1c1.2,3.3,5.5,6.7,6.2,9.3c0.7,2.6,2.6,1.8,0.5,4.3
	c-2.1,2.4-6.4,5.3-5,5.8c1.3,0.5,4.7-2.1,7-2.2s4.2,0.5,4.4-1.7c0.2-2.2-2.2-4.2-2.2-4.2s0.9-6.7-1.6-9.4c-2.4-2.7-1-0.7-1-0.7
	s2.2-2.1,4.8-4.5s8.2-3.1,8.2-3.1l1.7,3.1c0,0-6,6.5-6.5,8.7c-0.5,2.2-0.2,4.9-0.2,4.9s2.2,3.3,2.6,4.9c0.4,1.6,2,6.9,2.8,8.3
	c0.9,1.5-3.3,6.4-3.3,6.4s-0.1,3.1,2,3.6c2.1,0.5,2.7-1.6,2.7-1.6s-0.2-1.1,2-3.7c0,0,4.7-0.7,2-4.8c0,0-0.6-7-2.3-11
	c-1.7-4-2-2.8-2-2.8s3.4-1.7,6.6-6.1s-1.1-16.5-1.1-16.5L-456.2,981.8z"/>
<path id="XMLID_128_" class="st53" d="M-450.1,972.8l-0.9,3.2l-7.2,5.6c0,0,7.2,1.3,7.4,4.5s-2.1,2.9-2.1,2.9l5.9,1.8l0.6,0
	l-0.1,1.8l6.5-0.6c0,0,3.3,1.7,4,4.1c0.7,2.5-1.5,0.9-1.5,0.9l3.5,0.6c0,0,0-6.3,1.8-7.3c1.8-1,4.6-13.2,2.1-15.3l-1.5-2.8
	c0,0-6.9,1.4-12.4-0.1s-6.3-1.6-6.3-1.6L-450.1,972.8z"/>
</svg>
